<?xml version="1.0" encoding="UTF-8"?>
<svg width="64px" height="64px" viewBox="0 0 64 64" version="1.1" xmlns="http://www.w3.org/2000/svg" xmlns:xlink="http://www.w3.org/1999/xlink">
    <!-- Generator: Sketch 64 (93537) - https://sketch.com -->
    <title>Icon-Service/64/Amazon-Elasticsearch-Service</title>
    <desc>Created with Sketch.</desc>
    <defs>
        <path d="M36.26,43.33 C31.843,43.33 28.25,39.737 28.25,35.321 C28.25,30.904 31.843,27.311 36.26,27.311 C40.677,27.311 44.27,30.904 44.27,35.321 C44.27,39.737 40.677,43.33 36.26,43.33 L36.26,43.33 Z M36.26,25.311 C30.74,25.311 26.25,29.801 26.25,35.321 C26.25,40.84 30.74,45.33 36.26,45.33 C41.78,45.33 46.27,40.84 46.27,35.321 C46.27,29.801 41.78,25.311 36.26,25.311 L36.26,25.311 Z M56.548,53.346 C55.897,54.067 54.777,54.127 54.052,53.477 L45.712,45.954 C46.593,45.17 47.384,44.29 48.049,43.313 L56.416,50.851 C57.139,51.503 57.197,52.624 56.548,53.346 L56.548,53.346 Z M24.011,35.321 C24.011,28.566 29.506,23.071 36.26,23.071 C43.014,23.071 48.509,28.566 48.509,35.321 C48.509,42.075 43.014,47.57 36.26,47.57 C29.506,47.57 24.011,42.075 24.011,35.321 L24.011,35.321 Z M49.063,41.535 C49.98,39.654 50.509,37.55 50.509,35.321 C50.509,27.463 44.117,21.071 36.26,21.071 C28.403,21.071 22.011,27.463 22.011,35.321 C22.011,43.178 28.403,49.57 36.26,49.57 C39.159,49.57 41.856,48.695 44.109,47.202 L52.714,54.964 C53.432,55.609 54.333,55.927 55.232,55.9260024 C56.263,55.9260024 57.29,55.508 58.034,54.685 C59.42,53.143 59.296,50.757 57.756,49.366 L49.063,41.535 Z M59,12 L59,46 L57,46 L57,13 L49,13 L49,24 L47,24 L47,12 C47,11.448 47.448,11 48,11 L58,11 C58.553,11 59,11.448 59,12 L59,12 Z M43,53 L45,53 L45,58 C45,58.553 44.553,59 44,59 L34,59 C33.447,59 33,58.553 33,58 L33,52 L35,52 L35,57 L43,57 L43,53 Z M35,18 L33,18 L33,6 C33,5.448 33.447,5 34,5 L44,5 C44.553,5 45,5.448 45,6 L45,20 L43,20 L43,7 L35,7 L35,18 Z M29,51 L31,51 L31,58 C31,58.553 30.553,59 30,59 L20,59 C19.448,59 19,58.553 19,58 L19,43 L21,43 L21,57 L29,57 L29,51 Z M21,28 L19,28 L19,15 C19,14.448 19.448,14 20,14 L30,14 C30.553,14 31,14.448 31,15 L31,19 L29,19 L29,16 L21,16 L21,28 Z M7,57 L15,57 L15,23 L7,23 L7,57 Z M16,21 L6,21 C5.448,21 5,21.448 5,22 L5,58 C5,58.553 5.448,59 6,59 L16,59 C16.553,59 17,58.553 17,58 L17,22 C17,21.448 16.553,21 16,21 L16,21 Z" id="path-1"></path>
    </defs>
    <g id="Icon-Service/64/Amazon-Elasticsearch-Service" stroke="none" stroke-width="1" fill="none" fill-rule="evenodd">
        <mask id="mask-2" fill="white">
            <use xlink:href="#path-1"></use>
        </mask>
        <use id="Amazon-Elasticsearch-Service_Icon_64_Squid" fill="#FFFFFF" xlink:href="#path-1"></use>
    </g>
</svg>