<svg id="Layer_1" data-name="Layer 1" xmlns="http://www.w3.org/2000/svg" viewBox="0 0 64 64"><defs><style>.cls-1{fill:#fff;}</style></defs><path class="cls-1" d="M60,30.89746c0-7.8706-5.99121-10.24463-8.80762-10.92334-.42773-3.812-2.38379-6.55176-5.31347-7.38867a6.31913,6.31913,0,0,0-5.88575,1.34424,17.27045,17.27045,0,0,0-3.415-5.22071A14.31209,14.31209,0,0,0,20.05859,5.32764C15.0957,7.49316,11.353,13.46484,11.353,19.21826c0,.34375.01123.689.03271,1.0332C8.6748,21.17041,4.04,23.773,4.04,30.81152c0,.44873.02.88037.05762,1.29639A11.27538,11.27538,0,0,0,14,41.91644V59a.99974.99974,0,0,0,1,1H37a.99943.99943,0,0,0,1-1V52h4V50H38V37a.99943.99943,0,0,0-1-1H15a.99974.99974,0,0,0-1,1v2.8988a9.21769,9.21769,0,0,1-7.91016-7.972q-.04906-.53686-.0498-1.11524c0-6.1206,4.0874-8.16943,6.58691-8.84961a.99955.99955,0,0,0,.8208-1.10009,14.291,14.291,0,0,1-.09472-1.64356c0-4.9248,3.29687-10.22119,7.50537-12.05762a12.33741,12.33741,0,0,1,14.28222,2.939,15.99363,15.99363,0,0,1,3.55176,6.01269,1.00038,1.00038,0,0,0,1.75879.25879A4.49274,4.49274,0,0,1,45.3291,14.5083c2.21973.63428,3.67969,2.92432,3.918,6.13525l-.001.0044a1.00073,1.00073,0,0,0,.81446,1.13135C52.44824,22.20215,58,23.937,58,30.89746a8.59946,8.59946,0,0,1-7,8.92V36H49v4.999l-.001,1H49V44h2V41.8443C53.46326,41.32831,60,39.17737,60,30.89746ZM16,38H36V58H16ZM36,28h6v2H36Zm-8,0h4v2H29v3H27V29A1,1,0,0,1,28,28ZM49,47h2v4a.99943.99943,0,0,1-1,1H46V50h3Zm0-14V30H46V28h4a.99974.99974,0,0,1,1,1v4Z"/></svg>