<?xml version="1.0" encoding="UTF-8"?>
<svg width="64px" height="64px" viewBox="0 0 64 64" version="1.1" xmlns="http://www.w3.org/2000/svg" xmlns:xlink="http://www.w3.org/1999/xlink">
    <!-- Generator: Sketch 64 (93537) - https://sketch.com -->
    <title>Icon-Service/64/AWS-X-Ray</title>
    <desc>Created with Sketch.</desc>
    <g id="Icon-Service/64/AWS-X-Ray" stroke="none" stroke-width="1" fill="none" fill-rule="evenodd">
        <path d="M39.5,34.2002589 L37.5,34.2002589 L37.5,48.0834412 L33.5,48.0834412 L33.5,38.1668824 L31.5,38.1668824 L31.5,48.0834412 L27.5,48.0834412 L27.5,41.1418501 L25.5,41.1418501 L25.5,48.0834412 L23.5,48.0834412 L23.5,50.066753 L41.5,50.066753 L41.5,48.0834412 L39.5,48.0834412 L39.5,34.2002589 Z M47.5,41.637678 C47.5,33.7093893 40.995,27.2586678 33,27.2586678 C25.005,27.2586678 18.5,33.7093893 18.5,41.637678 C18.5,49.5659668 25.005,56.0166882 33,56.0166882 C40.995,56.0166882 47.5,49.5659668 47.5,41.637678 L47.5,41.637678 Z M49.5,41.637678 C49.5,50.6597632 42.098,58 33,58 C23.902,58 16.5,50.6597632 16.5,41.637678 C16.5,32.6155928 23.902,25.275356 33,25.275356 C42.098,25.275356 49.5,32.6155928 49.5,41.637678 L49.5,41.637678 Z M60,30.701697 C60,36.3590938 56.868,40.0381371 51.409,40.7937789 L51.132,38.8293086 C54.266,38.395955 58,36.6337825 58,30.701697 C58,25.1335492 53.753,23.1194962 50.191,22.4104622 C49.744,22.3222048 49.415,21.9453756 49.39,21.4941722 C49.156,17.4214415 46.745,15.5977863 44.458,15.5977863 C43.021,15.5977863 41.681,16.2691374 40.782,17.4402829 C40.562,17.7278632 40.197,17.8726449 39.839,17.8200871 C39.479,17.7665377 39.175,17.523582 39.049,17.1834441 C38.239,15.0146927 37.039,13.1236049 35.579,11.7144619 C31.741,8.00269396 26.489,6.99417993 21.53,9.01914124 C17.413,10.694048 14.188,15.5144872 14.188,19.9928052 C14.188,20.4955747 14.219,20.9963609 14.279,21.4812806 C14.342,21.9790919 14.019,22.4451702 13.527,22.5651605 C11.09,23.1641207 7,25.007609 7,30.6253395 C7,30.8365622 7.011,31.0279518 7.021,31.2292579 C7.204,34.5205638 10.068,37.5441226 13.987,38.5804029 L13.472,40.4962821 C8.728,39.2418374 5.254,35.4755284 5.024,31.3363568 C5.011,31.0983594 5,30.8742451 5,30.6253395 C5,24.1349518 9.538,21.728203 12.216,20.8743873 C12.197,20.5828404 12.188,20.2883186 12.188,19.9928052 C12.188,14.6814963 15.878,9.17582286 20.77,7.18457786 C26.488,4.84823661 32.548,6.0104573 36.975,10.2944107 C38.313,11.5855466 39.456,13.2188039 40.326,15.0732004 C41.492,14.1331106 42.936,13.6144746 44.458,13.6144746 C47.53,13.6144746 50.753,15.7911592 51.32,20.6274649 C56.926,21.9771086 60,25.5312033 60,30.701697 L60,30.701697 Z" id="AWS-X-Ray_Icon_64_Squid" fill="#FFFFFF"></path>
    </g>
</svg>